<svg width="50" height="50" viewBox="0 0 50 50" fill="none" xmlns="http://www.w3.org/2000/svg">
<path d="M36.2501 47.375L35.0001 46.3333C30.8334 42.375 27.9167 39.875 27.9167 36.75C27.9167 34.25 30.0001 32.1666 32.5001 32.1666C33.9584 32.1666 35.4167 32.7916 36.2501 33.8333C37.0834 32.7916 38.5417 32.1666 40.0001 32.1666C42.5001 32.1666 44.5834 34.0416 44.5834 36.75C44.5834 39.875 41.6667 42.375 37.5001 46.3333L36.2501 47.375Z" fill="#50B2C0"/>
<path d="M34.1667 3C36.4583 3 38.3333 4.875 38.3333 7.16667V26.0833L36.25 25.9167L34.1667 26.0833V7.16667H23.75V23.8333L18.5417 19.1458L13.3333 23.8333V7.16667H9.16667V40.5H23.9167C24.1667 42 24.6875 43.3958 25.4167 44.6667H9.16667C6.875 44.6667 5 42.7917 5 40.5V7.16667C5 4.875 6.875 3 9.16667 3H34.1667Z" fill="#8381D9"/>
</svg>
